<?xml version="1.0" encoding="UTF-8" standalone="no"?>
<!-- Created with Inkscape (http://www.inkscape.org/) -->

<svg
   xmlns:dc="http://purl.org/dc/elements/1.1/"
   xmlns:cc="http://creativecommons.org/ns#"
   xmlns:rdf="http://www.w3.org/1999/02/22-rdf-syntax-ns#"
   xmlns:svg="http://www.w3.org/2000/svg"
   xmlns="http://www.w3.org/2000/svg"
   xmlns:sodipodi="http://sodipodi.sourceforge.net/DTD/sodipodi-0.dtd"
   xmlns:inkscape="http://www.inkscape.org/namespaces/inkscape"
   width="210mm"
   height="297mm"
   viewBox="0 0 744.09448819 1052.3622047"
   id="svg2"
   version="1.1"
   inkscape:version="0.91 r13725"
   sodipodi:docname="da.svg">
  <defs
     id="defs4" />
  <sodipodi:namedview
     id="base"
     pagecolor="#ffffff"
     bordercolor="#666666"
     borderopacity="1.0"
     inkscape:pageopacity="0.0"
     inkscape:pageshadow="2"
     inkscape:zoom="1.1078927"
     inkscape:cx="249.28463"
     inkscape:cy="578.56112"
     inkscape:document-units="px"
     inkscape:current-layer="layer1"
     showgrid="false"
     inkscape:window-width="1276"
     inkscape:window-height="755"
     inkscape:window-x="38"
     inkscape:window-y="0"
     inkscape:window-maximized="0" />
  <metadata
     id="metadata7">
    <rdf:RDF>
      <cc:Work
         rdf:about="">
        <dc:format>image/svg+xml</dc:format>
        <dc:type
           rdf:resource="http://purl.org/dc/dcmitype/StillImage" />
        <dc:title></dc:title>
      </cc:Work>
    </rdf:RDF>
  </metadata>
  <g
     inkscape:label="Layer 1"
     inkscape:groupmode="layer"
     id="layer1">
    <path
       style="fill:#0d47a1;fill-opacity:1;stroke:none"
       d="m 84.20697,466.94202 c -0.737016,-1.37713 -1.134456,-20.63313 -1.134456,-54.96481 l 0,-52.84507 4.497431,-4.27831 c 11.768736,-11.19532 23.614065,-16.32472 39.338685,-17.03486 16.07838,-0.72613 27.45991,2.53955 39.56152,11.35131 l 5.04058,3.6703 2.45207,-2.61012 c 3.75422,-3.99618 14.24935,-9.14886 22.64856,-11.11952 10.61267,-2.49 29.31357,-1.67713 37.95789,1.6499 8.32856,3.2055 15.91096,8.52584 20.28603,14.23406 l 3.56168,4.647 0,52.59018 c 0,34.156 -0.39766,53.33322 -1.13446,54.70994 -0.78009,1.45761 -2.29828,2.11976 -4.86022,2.11976 -5.16004,0 -8.53945,-1.4712 -13.4003,-5.83374 -8.50983,-7.63741 -12.52565,-8.95374 -27.18089,-8.90946 -15.33329,0.0464 -20.82974,1.71419 -32.3251,9.8088 -3.8541,2.71392 -7.77419,4.93316 -8.71129,4.93162 -0.9371,-0.001 -5.40249,-2.46672 -9.92309,-5.47821 -11.84217,-7.88891 -16.70398,-9.31369 -31.78118,-9.31369 -14.03863,0 -18.21355,1.40469 -26.63294,8.96094 -4.860851,4.36254 -8.240253,5.83374 -13.4003,5.83374 -2.561936,0 -4.080123,-0.66215 -4.86022,-2.11976 z m 13.885187,-10.49231 c 14.543193,-14.97465 47.727483,-15.2509 67.279113,-0.5601 l 5.60647,4.21262 5.08903,-3.89103 c 19.00876,-14.53392 50.81268,-14.86547 65.96987,-0.68769 2.80535,2.62408 5.66594,4.77105 6.35686,4.77105 0.9257,0 1.25624,-12.92788 1.25624,-49.13297 l 0,-49.13298 -4.10964,-4.16832 c -8.69869,-8.82292 -25.04571,-13.45658 -40.5484,-11.49368 -12.30082,1.55749 -18.44623,4.36291 -27.94868,12.75877 -2.26204,1.9986 -4.92447,3.63383 -5.91653,3.63383 -0.99205,0 -4.56602,-2.29083 -7.94213,-5.09074 -8.19998,-6.80047 -15.81653,-10.15323 -25.54334,-11.24405 -16.31013,-1.8291 -28.54444,1.67066 -41.143697,11.76961 l -4.657587,3.73331 0,49.18361 c 0,36.31002 0.329582,49.18361 1.25917,49.18361 0.692545,0 2.939508,-1.73019 4.993251,-3.84485 z m 69.364873,-51.49824 0,-33.42503 3.28771,0 3.28771,0 0,33.42503 0,33.42504 -3.28771,0 -3.28771,0 0,-33.42504 z"
       id="path4065"
       inkscape:connector-curvature="0" />
    <text
       xml:space="preserve"
       style="font-style:normal;font-variant:normal;font-weight:normal;font-stretch:normal;font-size:49.67606354px;line-height:125%;font-family:'Arial Rounded MT Bold';-inkscape-font-specification:'Arial Rounded MT Bold, Normal';text-align:start;letter-spacing:0px;word-spacing:0px;writing-mode:lr-tb;text-anchor:start;fill:#0d47a1;fill-opacity:1;stroke:none;stroke-width:1px;stroke-linecap:butt;stroke-linejoin:miter;stroke-opacity:1;"
       x="268.21375"
       y="387.53336"
       id="text4067"
       sodipodi:linespacing="125%"><tspan
         sodipodi:role="line"
         x="268.21375"
         y="387.53336"
         id="tspan4071"
         style="font-size:50px;fill:#0d47a1;fill-opacity:1;stroke:none;">Dicionário</tspan></text>
    <text
       xml:space="preserve"
       style="font-style:normal;font-variant:normal;font-weight:normal;font-stretch:normal;font-size:89.27137756px;line-height:125%;font-family:'Arial Rounded MT Bold';-inkscape-font-specification:'Arial Rounded MT Bold, Normal';text-align:start;letter-spacing:0px;word-spacing:0px;writing-mode:lr-tb;text-anchor:start;fill:#0d47a1;fill-opacity:1;stroke:none;stroke-width:1px;stroke-linecap:butt;stroke-linejoin:miter;stroke-opacity:1;"
       x="269.59357"
       y="461.63455"
       id="text4075"
       sodipodi:linespacing="125%"><tspan
         sodipodi:role="line"
         id="tspan4077"
         x="269.59357"
         y="461.63455"
         style="font-size:92.83638px;fill:#0d47a1;fill-opacity:1;stroke:none;">Aberto</tspan></text>
  </g>
</svg>
